<?xml version="1.0" encoding="utf-8"?>
<!-- Generator: Adobe Illustrator 16.0.0, SVG Export Plug-In . SVG Version: 6.00 Build 0)  -->
<!DOCTYPE svg PUBLIC "-//W3C//DTD SVG 1.1//EN" "http://www.w3.org/Graphics/SVG/1.1/DTD/svg11.dtd">
<svg version="1.1" id="sui_x5F_logo03" xmlns="http://www.w3.org/2000/svg" xmlns:xlink="http://www.w3.org/1999/xlink" x="0px"
	 y="0px" width="334.783px" height="307.247px" viewBox="0 0 334.783 307.247" enable-background="new 0 0 334.783 307.247"
	 xml:space="preserve">
<g>
	<rect x="268.921" y="276.929" width="22.265" height="1"/>
	<rect x="168.492" y="278.193" width="22.265" height="1"/>
	<g>
		<path d="M212.136,266.676v4.453c-0.157,0.469-0.549,0.392-1.172-0.234c-1.875-1.875-3.047-2.967-3.516-3.281
			c-0.626-0.312-1.252-0.469-1.875-0.469c-1.095,0-1.875,0.234-2.344,0.703c-0.626,0.469-0.938,1.172-0.938,2.109
			c0,0.783,0.154,1.486,0.469,2.109c1.249,1.406,2.732,3.047,4.453,4.922c2.187,2.189,3.358,4.533,3.516,7.031
			c0,2.344-0.703,4.299-2.109,5.859c-1.563,1.406-3.361,2.109-5.391,2.109c-2.032,0-3.907-0.623-5.625-1.875
			c-1.875-1.406-3.516-3.358-4.922-5.859c0.312-1.092,0.623-1.172,0.938-0.234c2.498,1.875,5.156,2.893,7.969,3.047
			c1.406,0,2.421-0.077,3.047-0.234c0.469-0.312,0.857-0.546,1.172-0.703c0.623-0.78,0.938-1.483,0.938-2.109
			c0-0.78-0.703-2.187-2.109-4.219c-2.658-3.124-4.219-5.156-4.688-6.094s-0.703-2.109-0.703-3.516c0-2.029,0.623-3.593,1.875-4.688
			c1.092-1.406,2.813-2.109,5.156-2.109C209.87,263.864,211.822,264.958,212.136,266.676z"/>
		<path d="M239.446,266.911c-0.469,1.406-0.938,3.127-1.406,5.156c-0.783,4.688-1.252,8.049-1.406,10.078
			c0,1.875,0.234,3.204,0.703,3.984c0.312,0.783,0.938,1.018,1.875,0.703c0.938-0.312,1.875-1.326,2.813-3.047
			c0.154,0.469,0.154,1.252,0,2.344c-1.406,3.75-2.893,5.625-4.453,5.625c-0.938,0-1.721-0.312-2.344-0.938
			c-1.563-1.406-2.267-3.984-2.109-7.734c-1.563,3.438-3.127,5.859-4.688,7.266c-1.252,1.095-2.501,1.641-3.75,1.641
			c-1.721,0-2.97-0.546-3.75-1.641c-0.938-1.249-1.406-3.047-1.406-5.391c0-1.406,0.78-7.031,2.344-16.875
			c-0.157-0.623-0.549-0.623-1.172,0c-0.783,0.314-1.095,0.157-0.938-0.469c0.312-0.938,1.015-2.029,2.109-3.281
			c0.938-0.78,1.795-0.78,2.578,0c0.938,1.095,1.406,2.109,1.406,3.047c0,1.406-0.234,3.127-0.703,5.156
			c-1.406,6.408-2.109,10.158-2.109,11.25c0,1.563,0.154,2.501,0.469,2.813c0.469,0.469,0.938,0.703,1.406,0.703
			c1.406,0,2.813-0.78,4.219-2.344c2.655-2.967,4.53-7.734,5.625-14.297c0.154-1.406,0.312-2.655,0.469-3.75
			c0.154-2.187,0.623-3.516,1.406-3.984c0.78-0.154,1.406,0,1.875,0.469C239.6,264.178,239.915,265.35,239.446,266.911z"/>
		<path d="M256.705,268.083c0.154,0.626,0.234,1.798,0.234,3.516l-0.469,3.75c-0.314,3.127-0.703,6.174-1.172,9.141
			c-0.314,1.252,0,1.875,0.938,1.875s1.952-0.234,3.047-0.703c0.938-0.623,1.875-1.406,2.813-2.344
			c0.623-0.469,0.857-0.234,0.703,0.703c-0.783,2.344-1.955,4.299-3.516,5.859c-1.406,1.406-2.893,2.109-4.453,2.109
			c-0.783,0-1.486-0.312-2.109-0.938c-1.095-1.092-1.641-2.967-1.641-5.625c0-1.249,0.312-4.062,0.938-8.438
			c0.469-4.688,0.938-8.515,1.406-11.484c0.78-2.187,1.561-2.421,2.344-0.703C256.236,266.208,256.547,267.302,256.705,268.083z
			 M258.111,252.614c0.312,0.626,0.469,1.172,0.469,1.641c0,1.721-0.549,3.281-1.641,4.688c-0.314,0.157-0.783,0.157-1.406,0
			c-1.406-1.249-2.032-2.187-1.875-2.813c0.78-2.187,1.483-4.219,2.109-6.094c0-0.623,0.234-0.703,0.703-0.234
			C257.25,250.896,257.796,251.833,258.111,252.614z"/>
	</g>
	<g>
		<path d="M195.177,94.283c7.131-1.527,10.244-3.72,17.888-3.72c7.131,1.529,15.483,5.512,16.509,9.071
			c-1.025,2.042-5.1,3.319-12.23,3.822c-7.644,0-14.784,0.513-21.4,1.528c-0.515,3.571-0.766,6.879-0.766,9.937
			c2.03,0,4.588-0.251,7.643-0.764c5.602-3.058,10.702-3.309,15.289-0.766c4.585,1.529,7.382,3.319,8.409,5.351
			c-0.515,3.57-4.587,5.614-12.23,6.115c-6.117,1.026-12.743,2.807-19.873,5.351c-0.516,2.556-0.767,5.352-0.767,8.408h10.701
			c5.602,0,5.66-1.928,8.716-2.954l2.752-3.16c3.557,1.026,7.894,3.32,12.994,6.88c4.072,2.042,6.615,4.334,7.643,6.878
			c-2.041,1.027-6.629,1.528-13.76,1.528c-8.156,0.516-18.094,1.028-29.809,1.529c0,3.059-0.263,6.378-0.767,9.938v9.172
			c0,2.556-1.275,3.821-3.821,3.821c-5.101,0-8.922-3.56-11.465-10.701c-0.513-4.072-0.262-8.144,0.764-12.23
			c-5.101,1.028-9.685,0.765-13.757-0.763c-3.571-1.017-8.819-3.56-12.894-7.645c-5.613,7.143-11.066,13.507-19.211,19.108
			c0.501,5.101,1.015,9.173,1.529,12.23c-1.529,2.556-3.32,4.336-5.351,5.352c-6.63,0-10.201-3.822-10.702-11.466
			c-10.701,6.114-17.843,8.921-21.402,8.407c-4.085-0.501-7.906-4.072-11.466-10.702c-1.027-2.03-1.94-4.072,0.104-6.113
			c0.501-2.031,3.456-3.31,6.012-3.821c0,2.041,1.015,4.083,3.059,6.113c7.643-3.057,15.024-6.364,22.165-9.937
			c-0.513-4.072-0.764-8.658-0.764-13.759c-2.044,1.028-3.422,0.616-6.982,1.633c3.058-2.03,4.176-2.898,6.217-5.454
			c-2.555,0-5.351,0-8.407,0c-5.613-0.501-9.686-3.059-12.229-7.645c2.03-1.527,5.086-2.294,9.172-2.294
			c4.584-1.013,8.145-2.028,10.701-3.057l-0.766-8.511c-4.585,0.514-8.671,4.541-12.229,3.515
			c-7.143-1.016-14.58-8.351-16.61-13.451c7.13,0,15.083-1.426,18.138-1.426c5.09,0,8.911-0.502,11.468-1.528
			c-0.516-6.117-0.766-11.467-0.766-16.052c0-2.03-0.513-4.325-1.527-6.88c5.601,2.555,10.187,1.334,13.758,4.894
			c2.03,3.059,3.309,11.158,3.821,15.744c3.56,0,7.896-1.016,12.995-3.057c8.146,1.527,11.967,5.1,11.466,10.701
			c-1.027,1.528-3.571,2.555-7.644,3.058c-4.587,0.514-10.449,1.276-17.58,2.293v8.407c2.543-1.015,5.602-1.779,9.172-2.293
			c6.616-0.501,11.202,1.529,13.76,6.115c-0.516,3.571-4.588,6.377-12.23,8.407l-9.938,3.821c-0.513,4.087-0.262,7.646,0.767,10.702
			c4.584-2.543,8.656-4.585,12.229-6.114c3.057-2.03,5.853-3.56,8.408-4.588c2.03-2.03,4.587-3.558,7.643-4.584
			c-1.526,5.1-4.481,8.921-6.011,11.465c3.059,1.027,8.041,1.528,12.128,1.528c5.602-0.501,10.7-1.266,15.285-2.292l0.767-6.117
			c-1.022,0.512,1.651-2.086-6.526-0.455c4.585-2.544,2.955-0.809,6.526-3.366c-4.087,0-7.907,0-11.468,0
			c-4.584-1.014-8.155-3.56-10.701-7.643c4.075-0.502,8.147-2.692,12.23-3.72c3.561-0.502,7.131-1.267,10.701-2.294v-9.273
			l-9.172,0.764c-6.113-0.501-10.45-3.56-12.993-9.172c8.145-0.502,15.786-1.268,22.932-2.294v-6.115
			c0-2.543-0.516-5.351-1.529-8.407c-2.045-2.031-3.423-12.778-6.983-12.276c3.059-3.057,9.982-4.072,15.083-3.057
			C192.458,66.302,192.498,63.719,195.177,94.283z M192.885,173.219c7.13,1.529,11.715,1.483,13.759,5.557
			c0,3.571-1.277,13.097-3.824,17.169l13.76-0.763c4.588,0.512,8.409,1.277,11.465,2.292c3.561,1.027,6.117,3.058,7.646,6.114
			c1.529,2.557,1.264,5.1-0.767,7.644c-2.041,1.026-5.351,3.617-9.936,2.089c-6.116-0.502-50.072,2.852-57.718,4.381
			c3.058-1.016,42.167-8.248,43.194-10.291c-4.085,0-8.157,0.264-12.229,0.765c-2.042,4.586-0.97,9.173-2.499,13.759
			c4.585,0.514,4.028,3.32,4.028,8.407c-2.045,1.017-7.393,2.955-16.053,2.955c-11.971,0.537-33.282,3.234-59.416,5.248
			c-7.144,0-10.701-5.408-10.701-10.495c9.172-2.031,21.699-3.56,31.898-4.588c6.114-1.014,12.479-1.778,19.108-2.292
			c2.546,0,8.202-0.251,11.261-0.763c1.529-4.588,0.457-8.409,2.499-11.468c-5.101,0-10.963-0.911-17.581,0.103
			c-17.574,2.513-29.007,3.774-42.907,4.028c-11.257,0.204-21.357,2.111-24.356-4.895c7.129-1.016,14.773-2.294,22.931-3.821
			c9.673-2.544,21.651-4.588,35.924-6.117c15.289-2.028,25.225-3.055,29.812-3.055c1.529-3.561,2.794-6.619,3.822-9.174
			l-12.994-0.765c-11.214,0.514-23.695,2.294-37.455,5.351c-5.1,1.027-10.701,0.765-16.815-0.763
			c-3.571-1.529-9.481-3.561-12.025-6.116c11.717-2.031,27.312-4.323,41.071-6.88c11.203-2.03,21.139-3.057,29.81-3.057
			C182.684,173.779,187.785,171.69,192.885,173.219z"/>
	</g>
	<g>
		<path d="M294.64,138.654c0.001-0.324,0.09-0.423,0.202-0.467c-0.086-0.251-0.152-0.494-0.248-0.749L294.64,138.654z"/>
		<path d="M297.449,214.19c-0.015,0.046-0.024,0.076-0.042,0.132c0.155-0.101,0.321-0.236,0.458-0.225
			C297.706,213.88,297.706,213.881,297.449,214.19z"/>
		<path d="M300.775,194.665c0.18-0.309,0.374-0.607,0.578-0.872C301.216,193.778,301.009,194.15,300.775,194.665z"/>
		<path d="M295.339,148.657c0.112-0.825,0.161-1.66,0.254-2.527C295.281,146.436,295.107,147.405,295.339,148.657z"/>
		<path d="M299.693,197.096c0.329-0.626,0.731-1.667,1.082-2.432C300.351,195.385,299.998,196.205,299.693,197.096z"/>
		<path d="M279.81,247.023c0.417-0.364,0.858-0.775,1.309-1.247c-0.044-0.079-0.027-0.196-0.12-0.246L279.81,247.023z"/>
		<path d="M158.061,279.861c-1.439,0.118-1.694,0.386-1.499,0.722C156.825,280.351,157.269,280.116,158.061,279.861z"/>
		<path d="M123.636,273.585c0.271,0.025,0.543,0.022,0.79,0.004C123.887,273.509,123.502,273.499,123.636,273.585z"/>
		<path d="M142.338,283.846c0.019,0.163,0.093,0.308,0.211,0.443C142.701,284.2,142.665,284.057,142.338,283.846z"/>
		<path d="M51.292,74.353l-0.901,0.578C50.64,74.91,50.955,74.678,51.292,74.353z"/>
		<path d="M92.177,37.275c0.152-0.086,0.289-0.163,0.433-0.244C92.466,37.112,92.332,37.188,92.177,37.275z"/>
		<path d="M93.621,36.46c-0.351,0.198-0.676,0.381-1.011,0.57C93.052,36.795,93.452,36.603,93.621,36.46z"/>
		<path d="M277.142,247.316c-0.314,1.462-2.252,4.271-1.674,4.835c0,0,1.101-1.269,2.201-2.536c0.555-0.633,1.1-1.272,1.484-1.771
			c0.394-0.492,0.656-0.82,0.656-0.82C277.961,248.636,276.505,249.032,277.142,247.316z"/>
		<path d="M50.678,184.321c-0.354-1.658-0.629-2.477-0.869-2.866c0.285,0.991,0.558,2.014,0.851,2.96L50.678,184.321z"/>
		<path d="M42.501,144.565c0.019,0.056,0.04,0.119,0.058,0.17c-0.003-0.094-0.006-0.163-0.009-0.259L42.501,144.565z"/>
		<path d="M52.116,187.105c0.162,0.164,0.328,0.35,0.513,0.422C52.455,186.914,52.286,186.915,52.116,187.105z"/>
		<path d="M289.48,129.282c-0.12-0.257-0.221-0.47-0.375-0.797C289.253,128.844,289.367,129.083,289.48,129.282z"/>
		<path d="M41.031,147.157l1.471-2.592c-0.134-0.39-0.279-0.791-0.43-1.316C41.245,142.601,40.927,145.795,41.031,147.157z"/>
		<path d="M52.116,187.105c-0.545-0.563-1.04-1.514-1.456-2.69c0,0-0.091,0.376-0.154,0.749c-0.07,0.376-0.141,0.751-0.141,0.751
			C51.21,189.264,51.683,187.553,52.116,187.105z"/>
		<path d="M161.117,283.276c-0.842-0.349,0.186-0.726,1.063-1.094c0.892-0.371,1.534-0.695-0.377-0.828l-3.517,1.342
			c0.597-0.653-1.364-1.504-1.725-2.113c-1.482,1.295,4.434,2.316,0.198,4.037c-1.015,0.849-4.218,0.38-5.817,0.084
			c3.594,0.537-0.183,1.236-1.712,1.607c-2.181-0.824-5.789-1.003-6.682-2.021c-0.382,0.248-2.125,0.111-3.272-0.237l-0.032-0.46
			c-2.705-0.082,0.813,0.585,0.059,0.926c-0.968-0.117-2.174-0.466-3.485-1.012c-1.318-0.522-2.771-1.088-4.315-1.41
			c3.094,0.645,5.77,0.669,8.066,0.513c-5.438-1.767,1.433-2.07,2.797-3.007c-2.23-0.134-3.822-0.025-5.313,0.035
			c-1.486,0.036-2.889,0.12-4.783,0.074c-2.073-0.978-1.744-1.811-0.818-2.279c0.933-0.478,2.51-0.8,3.059-0.732
			c-2.032-0.085-4.134-0.166-6.039-0.182c-0.951-0.013-1.858,0.01-2.655-0.018c-0.793-0.042-1.491-0.084-2.05-0.141
			c3.405-0.688,3.087-1.435,6.042-2.055c-2.768-1.813-3.714-0.86-5.382-0.716c0.898,0.127,2.228,0.468,2.437,0.891
			c-3.552-1.346-3.796,1.422-6.122,1.88c-2.488-1.67-7.426-4.055-6.421-5.419l-0.644,1.573c-3.241-1.017-1.236-1.515-1.479-2.234
			c-0.809,0.271-1.036,0.944-1.732,1.311c-0.35,0.182-0.817,0.287-1.54,0.224c-0.709-0.092-1.665-0.371-3.003-0.927
			c1.017-1.019-0.09-1.652-1.288-2.295c-1.196-0.647-2.435-1.412-1.756-2.444c-1.184-0.584-2.213-0.727-3.234-0.929
			c-1.02-0.203-1.989-0.54-3.088-1.399c-0.91-1.419,0.443-1.557,2.124-1.21c1.662,0.389,3.766,1.089,4.355,1.682
			c3.299,1.81-0.994,0.749,0.33,1.476c0,0,0.876,0.286,1.751,0.573c0.893,0.242,1.785,0.485,1.785,0.485
			c-0.387-0.344-0.877-0.746-1.379-1.167c-0.486-0.449-0.981-0.921-1.399-1.368c-0.836-0.894-1.354-1.692-0.861-2.066
			c-3.407-1.342,1.939,2.472-1.851,1.055c0,0-0.45-0.425-0.878-0.879c-0.423-0.46-0.846-0.919-0.846-0.919
			c-3.712-1.608-0.302,2.08-4.924-0.488c1.825,0.449,0.593-0.285-0.835-1.429c-1.445-1.121-3.171-2.527-2.496-3.164
			c-0.771,0.867-2.662-0.546-4.624-2.045c-1.944-1.523-3.822-3.288-4.866-2.946l1.794,2.227l0.184-1.176
			c0.585,0.486,1.167,0.925,1.744,1.346c0.586,0.411,1.191,0.773,1.775,1.165c1.183,0.767,2.301,1.624,3.451,2.706
			c-2.486-0.815-0.471,2.074-3.218,0.872c-5.183-2.335-0.395-1.856-1.018-2.325c0,0-1.047-0.435-2.094-0.869
			c-1.022-0.482-2.046-0.964-2.046-0.964s0.408,0.671,0.816,1.341c0.4,0.685,0.847,1.323,0.847,1.323
			c-1.474-0.913-3.064-2.191-4.782-3.575c-1.671-1.437-3.368-3.095-5.031-4.797c-3.875-5.992,1.483-0.278-1.033-4.741
			c-1.902-1.248-1.91-0.527-3.871-3.001c0.643,1.7,2.18,2.128,2.938,3.031c-0.071,2.146-4.258-3.798-5.072-2.689
			c-0.449-1.341,0.164-1.51,1.286-1.118c-1.004-0.894-1.852-1.906-2.664-2.871c-0.796-0.979-1.54-1.926-2.104-2.875
			c-1.104-1.916-1.726-3.652-1.565-4.953c0-0.001-0.696-0.211-1.358-0.456c-0.673-0.241-1.347-0.482-1.347-0.482
			c-2.208-4.004-1.019-2.89,0.301-1.69c1.322,1.207,2.764,2.49,1.195-0.97c-0.384-0.673-0.778-1.335-1.176-1.961
			c-0.391-0.631-0.739-1.252-1.109-1.799c-0.729-1.099-1.448-1.956-2.1-2.373l1.299,2.363c-0.926-0.655-1.521-0.871-2.159-1.243
			c-0.64-0.373-1.342-0.895-2.37-2.252c-0.935-2.21,0.689-1.588-1.487-3.715c-2.115-7.009,1.53-3.099,3.423-2.8
			c-0.636-2.524,0.393-2.268,1.305-1.769c0.913,0.501,1.714,1.263,0.687-0.117l0.021,0.997c0,0-1.063-0.948-2.125-1.896
			c-0.536-0.484-1.073-0.968-1.477-1.33c-0.411-0.363-0.66-0.618-0.66-0.618c0.263,5.333,2.441,1.061,1.48,3.655
			c0,0,0.271,0.692,0.542,1.384c0.133,0.349,0.271,0.693,0.393,0.943c0.115,0.254,0.192,0.423,0.192,0.423
			c-0.688-0.181-1.544-1.944-2.421-3.657c-0.43-0.86-0.894-1.695-1.27-2.353c-0.373-0.657-0.729-1.107-1.046-1.148
			c0.258-0.137,0.766-0.155,1.356,0.212c0.298,0.184,0.609,0.466,0.933,0.874c0.341,0.4,0.688,0.929,1.022,1.622l1.224-2.521
			c-0.453-1.693-2.204-2.249-1.659-3.5c0.371-2.895,3.406,2.692,1.687-3.357c-0.834-3.248-1.911-4.542-2.767-5.66
			c-0.884-1.104-1.761-1.957-2.183-4.235c-0.385,0.587,0.021,1.674,0.338,3.087c-1.117-1.267-0.956,1.474-2.196-0.854
			c0.468-0.887,0.435-2.522,0.171-4.392c-0.133-0.935-0.345-1.923-0.549-2.913c-0.181-0.995-0.362-1.99-0.529-2.914
			c0.949,0.818,1.294-1.664,1.949-0.595c-0.254-0.905-0.541-1.771-0.818-2.506c-0.26-0.738-0.563-1.337-0.938-1.693
			c-0.061,3.842-0.587,2.078-1.199,0.067c-0.608-1.999-1.304-4.254-1.64-1.184c-0.182-1.501-0.237-2.708-0.142-3.737
			c0.07-1.027,0.202-1.867,0.361-2.633c0.164-0.766,0.334-1.456,0.529-2.189c0.216-0.734,0.424-1.509,0.591-2.437
			c0.231,0.115,0.479,1.817,0.779,2.817c0.354,0.998,0.568,1.306,0.784-1.309c-0.834-2.965-1.361-2.706-1.916-2.248
			c-0.557,0.448-1.144,1.099-2.119-1.29l-0.44,3.914c-1.84,0.569-0.675-6.795-0.941-7.792c0.531-2.406,0.435,3.378,1.758,1.034
			c0.253-1.781,0.094-3.125-0.034-4.316c-0.089-1.187-0.111-2.216,0.315-3.327c1.094,2.296,0.688,0.864,1.647,3.418
			c0.573-8.206,1.438,0.49,2.677-5.638c-0.015-1.972-1.244-0.853-0.571-3.982c-0.789,0.835-1.289,1.188-1.679,1.977
			c-0.191,0.395-0.37,0.896-0.519,1.628c-0.122,0.734-0.228,1.696-0.336,3.002c-0.457-0.493-0.624-1.174-0.632-1.972
			c-0.004-0.399,0.03-0.828,0.091-1.277c0.084-0.447,0.192-0.914,0.308-1.395c0.231-0.961,0.492-1.972,0.649-2.979
			c0.081-0.504,0.125-1.009,0.146-1.505c0.037-0.493,0.032-0.98-0.033-1.457c-0.667,2.875-0.554,0.851-0.688,4.057
			c-1.684,0.207-2.091,1.404-3.241-1.768c0.001,1.782,0.392,3.099,0.645,4.571c0.302,1.48,0.527,3.118,0.092,5.586
			c-1.754,1.29-0.88-6.218-2.943-6.523c-0.375-1.321-0.176-3.522,0.336-5.698c0.589-2.166,1.39-4.314,2.048-5.611
			c-0.245-5.12,1.236-11.072,0.734-15.334c0.458-0.814,0.82-2.021,1.28-3.433c0.474-1.406,0.955-3.051,1.473-4.8
			c0.558-1.732,1.235-3.533,1.931-5.309c0.705-1.771,1.619-3.427,2.517-4.922c0.34-0.122,0.771-0.647,1.253-1.275
			c0.496-0.62,1.016-1.357,1.454-1.949c0.878-1.185,1.426-1.774,0.832,0.324c0.012-0.337,0.688-1.768,1.178-3.015
			c0.54-1.215,0.895-2.25,0.115-1.849c-0.039,0.673-0.653,1.061-1.21,2.178c0,0-0.12-0.396-0.24-0.793
			c-0.124-0.399-0.229-0.792-0.229-0.792c1.126-1.292,1.868-2.933,2.635-4.561c0.785-1.611,1.684-3.147,2.908-4.269
			c1.39-0.288-3.01,5.321-0.813,4.19c0.159-1.749,1.849-5.408,4.189-8.78c1.101-1.738,2.449-3.321,3.633-4.702
			c1.173-1.393,2.327-2.454,3.171-3.053c2.065-1.804,3.337-0.991,4.251-1.659l3.176-3.206c0.717-0.004,1.143,0.356,2.175,0.261
			c1.884-1.184,2.675-2.537,3.532-3.647c2.568-1.472,3.454-1.419,3.462-0.736c0.025,0.708-0.843,2.023-1.615,3.369l-2.759,1.725
			c-0.33,0.515-0.752,1.019-1.149,1.493c-0.383,0.492-0.751,0.943-1.008,1.316c-0.515,0.748-0.574,1.177,0.598,0.998
			c1.067-1.218,0.631-1.613,0.846-2.231l1.94-0.644c0.522-0.832,1.692-2.198,2.658-3.35c0.98-1.132,1.694-2.13,1.146-2.372
			c0.881-0.448,1.719-1.005,2.538-1.603c0.848-0.56,1.673-1.167,2.489-1.767c0.819-0.594,1.616-1.198,2.437-1.698
			c0.835-0.479,1.668-0.889,2.504-1.17c-2.356,0.693-0.07-1.281-1.105-1.61c0,0-0.925,0.497-1.849,0.995
			c-0.465,0.245-0.926,0.497-1.258,0.709c-0.337,0.203-0.562,0.339-0.562,0.339c2.569-2.156,6.307-5.427,9.453-6.329
			c-0.011,0.777-0.003,1.03,1.69,0.807c-1.181,0.175-0.096-0.868,0.773-1.656c0.853-0.81,1.42-1.506-1.052-0.893
			c-1.417,1.209-2.793,2.198-4.887,3.267c-2.098-0.473,1.045-2.464,2.48-4.237c2.14-1.593,6.554-4.367,9.662-6.264
			c2.208-0.658,3.443,0.645,6.664-1.666c-2.531,0.26-1.677-0.696-0.055-1.964c1.617-1.265,4.071-2.644,4.465-3.555
			c1.898-0.347,3.307-1.023,4.648-1.652c1.344-0.605,2.611-1.205,4.255-0.971c-0.711,0.385-2.459,1.047-4.187,1.721
			c-0.862,0.343-1.716,0.701-2.422,1.063c-0.699,0.383-1.243,0.792-1.513,1.163c0.131,1.034,2.005,2.172-3.118,4.471
			c6.541-1.64,3.446-2.154,6.319-3.446c0,0-0.549,0.193-1.098,0.386c-0.54,0.22-1.08,0.44-1.08,0.44
			c0.881-0.729-1.259-0.827,0.706-1.514c3.928-0.907,6.274-1.263,8.37-1.197c2.087,0.042,3.841,0.139,6.587,0.353
			c-1.311-0.521,0.967-1.629,2.214-1.908c2.619-0.015,2.684,0.618,2.511,1.237c-0.175,0.646-0.563,1.394,1.076,1.956
			c1.604-1.158,5.068-1.319,3.827-1.912c1.997-0.254,1.005,0.292,2.458,0.463c1.215-0.93,2.693-1.61,5.503-1.714
			c-0.237,0.449-0.597,1.098-3.271,1.079c3.021,0.11,4.155,1.706,2.921,2.574c0,0-0.301-0.039-0.75-0.051
			c-0.449-0.021-1.05-0.046-1.649-0.072c-1.205-0.054-2.409-0.107-2.409-0.107c-2.075,1.204,4.484,0.111,4.352,1.141
			c-2.064,0.403-3.688-0.129-4.994,0.251c1.422,1.016,5.4-0.44,7.826-0.531c3.809,0.091,2.414,1.202,2.484,1.78
			c1.589-0.499,1.935-0.765,1.634-1.086c-0.3-0.318-1.243-0.538-2.209-0.749c-1.923-0.432-3.955-0.852-0.928-1.757
			c0.572-0.331,1.371-0.578,2.313-0.77c0.943-0.166,2.029-0.225,3.173-0.275c1.144-0.044,2.346-0.063,3.521-0.066
			c1.173,0.05,2.319,0.1,3.361,0.114c-1.727-0.851-1.607-1.354-0.484-1.663c1.118-0.283,3.245-0.491,5.436-0.405
			c-1.41-0.199-2.198-0.395-2.694-0.562c-0.494-0.182-0.692-0.375-0.925-0.541c-0.462-0.331-1.075-0.55-4.462-0.335l-0.074-1.16
			c2.888,0.271,6.266,0.909,9.105,1.371c-0.632,0.235-0.003,0.577-0.956,0.647c0,0,2.134,0.14,4.269,0.28
			c2.127,0.213,4.256,0.479,4.256,0.479l-0.991,0.596c5.185,0.948,11.146,3.508,14.237,3.976c-2.439-0.577-4.257-2.272-1.604-1.868
			c0.81-0.03,1.933,0.014,3.145,0.161c1.195,0.2,2.474,0.519,3.604,0.958c0.849,1.538,9.208,4.896,3.425,4.032
			c1.764,0.511,2.941,0.82,3.818,1.023c0.87,0.222,1.431,0.363,1.993,0.475c0.561,0.118,1.115,0.228,1.954,0.444
			c0.83,0.235,1.986,0.492,3.641,1.146c0,0-0.273-0.115-0.685-0.289c-0.405-0.184-0.965-0.389-1.525-0.59
			c-1.117-0.408-2.233-0.817-2.233-0.817c-0.136-1.222,4.273-1.17,0.31-3.695c2.632,0.821,3.36,0.45,4.281,0.227
			c0.933-0.244,2.02-0.248,5.416,1.349c2.394,1.956-1.811,1.455-5.602-0.139c1.838,0.991,3.231,2.389,5.49,2.714
			c0.974,1.478-4.189-0.411-4.153,0.002c3.297,1.753,0.192-0.547,3.481,0.804c3.021,0.946,3.646,1.887,4.223,2.777
			c0.573,0.911,1.09,1.807,3.755,3.098c-1.11-0.647-2.87-2.175-1.301-1.765c6.699,4.318,4.322,1.48,9.418,4.407
			c0.906,1.564,0.775,2.495,0.935,3.446c0.158,0.95,0.589,1.928,2.504,3.655l-2.248-1.791c0.55,0.929,1.214,1.806,1.946,2.607
			c0.726,0.81,1.471,1.602,2.265,2.262c8.867,5.96,16.778,10.975,24.424,19.545c0,0-0.669-0.772-1.338-1.544
			c-0.328-0.391-0.672-0.768-0.942-1.04c-0.265-0.277-0.441-0.463-0.441-0.463c-0.217-0.7,0.436-0.134,1.198,0.563
			c0.733,0.718,1.555,1.581,1.771,1.382l0.919,2.484c1.328-0.06-2.479-5.316-0.724-4.71c0.097,0.366,0.559,1.074,0.919,1.419
			c0,0-0.28-0.537-0.56-1.073c-0.275-0.542-0.574-1.067-0.574-1.067c1.443,2.302,3.199,4.03,4.663,5.785
			c1.407,1.787,2.627,3.528,2.919,5.735c-2.9-4.418-3.827-4.282-4.731-4.128c-0.46,0.084-0.912,0.17-1.645-0.257
			c-0.747-0.415-1.771-1.342-3.342-3.303c3.446,4.077-0.425,1.454-0.499,2.188c1.383,2.407,1.538,0.586,2.944,3.4
			c-0.643,0.313-5.126-4.642-3.888-1.905c1.213-0.446,2.622,1.921,4.025,2.609c0.957,2.115-0.702,0.388-0.487,1.447
			c0.729,1.035,1.593,1.376,2.064,2.423l-1.119-0.325c1.198,2.975,1.619,3.273,2.273,3.583c0.316,0.16,0.667,0.332,1.147,0.869
			c0.483,0.535,1.108,1.43,1.841,3.094c0.998-0.287-0.2-2.192-1.931-4.697c0.569-1.225,2.329,0.484,4.062,2.408
			c1.7,1.932,3.499,4.008,4.453,3.202c3.336,6.317-1.609-1.306,0.333,4.455c-0.06,3.633-3.239-3.375-4.986-4.159
			c0,0,0.12,0.367,0.301,0.918c0.173,0.553,0.438,1.271,0.627,2.024c0.406,1.486,0.813,2.972,0.813,2.972
			c-1.319-0.52-2.208-1.686-3.035-2.744c-0.88-1.033-1.681-1.966-2.715-2.025c1.948,3.948,2.048,3.297,4.582,7.103
			c-1.663-7.284,2.446,2.437,2.463-2.169c0.498,1.67,0.505,2.306,0.632,3.103c0.136,0.793,0.398,1.74,1.313,4.06
			c-1.562-2.786-1.547,0.446-3.097-3.391c2.592,6.131,2.322,4.313,4.602,10.604c0.959,0.798,0.927-0.964,0.977-1.989
			c0.038-0.515,0.124-0.85,0.425-0.59c0.281,0.267,0.866,1.099,1.641,3.013c0.5,1.707-0.102,1.515-0.381,0.517
			c1.079,5.788,1.328-1.646,3.029,1.735c0.906,2.458,0.514,3.52-0.032,2.552c1.627,3.607,2.043,1.298,2.938,3.779l-0.105-1.201
			c0.636,1.021,1.907-2.481,3.229,3.156c0.745,4.161-0.26,2.99-0.698,3.171c1.103,3.115,0.938,5.688,0.751,7.942
			c0.242-0.254,0.546-0.039,0.678,0.941c0.959,5.47-0.9,3.268-0.929,5.315c-0.018,1.955,0.118,2.859,0.321,3.262
			c0.22,0.401,0.563,0.294,0.929,0.212c0.731-0.163,1.564-0.226,1.713,4.21c0,0,0.046-2.579,0.091-5.158
			c-0.08-2.583-0.159-5.166-0.159-5.166c0.701,0.372,1.739,0.517,1.547-1.735c-1.009-0.125-2.362-3.663-2.644-7.1
			c1.05-1.197,2.488,9.097,3.02,3.096c0.031,1.064,0.229,2.313,0.427,3.626c0.146,1.317,0.309,2.699,0.353,4.011
			c-0.73-1.264-0.631,0.832-0.572,2.684c0.002,1.858-0.077,3.467-0.834,1.25c0.138,2.832,0.246,5.064,0.2,6.978
			c-0.082,1.912-0.15,3.507-0.217,5.072c-0.253,3.127-0.368,6.124-0.535,11.359c-0.327-0.517-0.808-2.483-1.069-4.949
			c-0.166-1.236-0.308-2.603-0.333-3.987c-0.015-0.692-0.003-1.391,0.04-2.082c0.027-0.691,0.065-1.377,0.155-2.043l0.716-0.419
			c-0.705-6.721-0.901,5.206-2.165,3.905c0.337,2.069,0.436,4.258,0.165,6.495c-0.115,1.121-0.274,2.259-0.461,3.408
			c-0.21,1.147-0.493,2.301-0.764,3.468c-1.07,4.68-2.688,9.414-3.61,14.341c1.104-1.53,0.934,0.48,1.449,1.073
			c0.907-3.977,0.407-3.351,1.939-6.075c0.736,0.754-0.17,3.058,0.134,4.477c0.696,1.299,0.754-3.017,1.606-4.314
			c-0.431,3.939-0.19,3.617,0.003,6.102c-1.362,1.898-1.709,1.491-3.013,2.847c-0.685,2.32-1.25,3.973-1.542,5.334
			c-0.313,1.354-0.454,2.386-0.639,3.344c-0.169,0.963-0.322,1.873-0.632,2.994c-0.29,1.13-0.8,2.444-1.671,4.213
			c1.911-3.928-1.733,1.475,0.439-2.738l-1.143,2.356c0.172-0.845,0.394-1.746,0.644-2.678c0.23-0.937,0.47-1.914,0.712-2.897
			c0.253-0.974,0.509-1.954,0.757-2.908c0.204-0.965,0.402-1.903,0.588-2.782c0.747-3.507,0.805-6.154-0.451-5.93
			c-1.286,5.189-1.334,9.333-3.839,15.484l-0.298-0.431c-1.988,4.34,0.555,0.163,0.481,1.363c-0.356,1.31-0.821,2.319-1.361,3.128
			c-0.554,0.804-1.14,1.429-1.677,2.015c-1.079,1.173-1.926,2.196-2.086,4.2c0,0,0.183-0.291,0.456-0.728
			c0.277-0.435,0.638-1.02,0.969-1.621c0.68-1.194,1.359-2.389,1.359-2.389c-0.946,4.156,0.685-1.024,1.659,0.545
			c-0.553,1.803-1.337,3.886-2.428,6.062c-0.538,1.092-1.079,2.247-1.716,3.394c-0.647,1.142-1.315,2.317-1.995,3.515
			c-2.825,4.728-6.045,9.669-8.955,14.175c1.265-0.959,2.044-1.614,2.819-2.422c0.766-0.815,1.485-1.819,2.69-3.45
			c0.654,2.704-0.571,3.91,2.073,3.312c0,0,0.753-1.019,1.507-2.037c0.383-0.505,0.746-1.023,1.009-1.42
			c0.267-0.394,0.445-0.655,0.445-0.655l1.665,1.017c-0.723,1.206-1.618,2.281-2.497,3.182c0.291,0.636-0.9,2.188-2.115,3.657
			c-1.245,1.446-2.468,2.845-2.118,3.346l2.555-3.561c2.101-1.128-1.097,2.942-2.764,5.581c1.391-0.768,2.889-2.671,4.432-5.043
			c1.498-2.41,3.1-5.232,4.729-7.908c-0.828-0.025,1.292-5.98-2.103-1.003c-0.313-0.249-0.072-1.181,0.4-2.293
			c0.477-1.111,1.106-2.454,1.708-3.461c-0.287,1.281,4.221-2.928,1.859,2.186c1.937-5.1,1.243-2.043,3.706-7.526
			c0.204,1.052,4.591-9.37,5.751-8.105c0.055-1.027-0.527-1.253-0.785-2.024c-0.275-0.779-0.142-2.057,1.032-5.299
			c-1.61,1.191-4.841,8.049-3.96,2.896l-0.601,3.339c-2.458,4.073-0.521-1.635-3.608,3.684c0.427-0.792,0.891-2.078,1.384-3.211
			c0.454-1.151,0.938-2.153,1.485-2.358c-1.457,0.215-0.799-1.964-0.078-4.34c0.683-2.396,1.521-4.966,0.708-5.41
			c1.11-1.002,1.781-2.643,2.595-5.859c0.504,0.635,1.676-0.941,1.347,1.676c-0.889,1.971-1.09,3.555-2.428,5.591
			c1.417-0.178,2.267-2.2,3.096-4.787c0.435-1.287,0.725-2.759,1.11-4.209c0.37-1.455,0.802-2.901,1.236-4.235
			c-0.377,0.713-0.658,0.865-0.635-0.718c1.273-3.181,3.06-10.527,3.813-8.188c0,0,0.048-0.268,0.131-0.735
			c0.094-0.466,0.183-1.14,0.292-1.947c0.201-1.616,0.555-3.761,0.753-5.922c0.187-2.162,0.427-4.318,0.507-5.941
			c0.078-1.623,0.13-2.705,0.13-2.705c0.582-0.042,0.081,2.486,0.194,3.559c0,0,0.174-2.42,0.348-4.839
			c0.103-1.21,0.136-2.421,0.156-3.33c0.025-0.909,0.042-1.515,0.042-1.515c0.815-2.257,0.746,3.323,1.405,4.352
			c0,0,0.022-0.441,0.056-1.104c0.01-0.662,0.023-1.546,0.037-2.429c0.023-1.767,0.047-3.532,0.047-3.532l0.741,0.994
			c-0.193-0.878-0.457-3.351-0.488-5.854c-0.029-1.252,0.048-2.515,0.102-3.593c0.063-1.077,0.212-1.973,0.481-2.491
			c-0.248-1.942-0.567-3.375-0.966-4.587c-0.425-1.209-0.868-2.203-1.277-3.282c-0.415-1.077-0.768-2.243-1.084-3.788
			c-0.358-1.54-0.646-3.463-0.838-6.091c0.646,0.065,1.02,1.509,1.383,3.217c0.182,0.854,0.359,1.773,0.569,2.622
			c0.206,0.85,0.385,1.638,0.673,2.215c0.035-0.524-0.021-1.304-0.167-2.188c-0.171-0.88-0.364-1.873-0.552-2.837
			c-0.368-1.927-0.609-3.749-0.143-4.394c-1.201-3.64-2.301-5.106-3.342-6.067c-1.062-0.954-2.105-1.4-3.178-2.962
			c-1.749-5.793,0.83-0.947,1.109-1.265c-0.219-0.877-1.052-1.869-1.743-2.867c-0.708-0.996-1.216-2.02-0.685-3.066
			c-1.807-2.492-3.334-3.637-2.345,0.554c-0.93-3.054-3.25-6.989-4.021-7.527c1.324,0.842,1.162-0.063,0.82-1.304
			c-0.334-1.242-0.963-2.761-0.335-3.237c-0.427-1.137-0.997-2.616-1.681-4.242c-0.75-1.594-1.613-3.334-2.539-5.028
			c-0.906-1.705-2.036-3.275-3.073-4.658c-0.529-0.686-1.058-1.313-1.576-1.855c-0.539-0.532-1.079-0.974-1.592-1.317l2.43,0.074
			l-3.259-4.669c-1.36-4.238,3.878,3.478,5.372,5.939c-0.895-1.731-1.889-3.216-2.772-4.659c-0.903-1.432-1.745-2.794-2.688-4.06
			c-0.925-1.276-1.835-2.534-2.772-3.827c-0.961-1.275-2.015-2.535-3.103-3.911c0.929,1.869-0.146,1.169-0.03,2.309
			c-1.06-0.686-1.975-1.759-2.845-2.888c-0.906-1.097-1.786-2.234-2.683-3.089c-0.027-0.771,0.505-0.839,1.892,0.537
			c0,0-0.832-0.862-1.665-1.726c-0.416-0.43-0.833-0.86-1.146-1.183c-0.308-0.326-0.527-0.53-0.527-0.53
			c0.592-0.282,0.48-0.844,0.707-0.977c0.234-0.137,0.793,0.165,2.672,1.705c0,0-0.808-0.78-1.615-1.562
			c-0.82-0.766-1.673-1.499-1.673-1.499c-3.177-3.792,0.893-0.549,2.046,0.071c0,0-1.321-1.461-2.643-2.923
			c-0.664-0.729-1.329-1.457-1.827-2.004c-0.521-0.524-0.868-0.874-0.868-0.874c-2.518-1.453,0.386,1.882-3.758-1.584
			c-1.094-1.468-2.461-2.836-3.896-4.249c-0.722-0.702-1.468-1.408-2.233-2.111c-0.801-0.663-1.612-1.335-2.429-2.012
			c-1.642-1.346-3.324-2.691-5.074-3.922c-1.737-1.247-3.412-2.558-5.124-3.708c0,0,0.265,0.256,0.663,0.641
			c0.401,0.379,0.925,0.897,1.427,1.443c1.011,1.072,2.022,2.145,2.022,2.145c-3.839-3.129-4.163-0.888-5.887-0.989
			c-3.63-2.632-8.872-5.619-12.037-7.781c2.161,0.549,3.01,0.351,2.93-0.37c-0.076-0.726-1.126-1.9-2.77-3.23
			c-1.031-0.548-1.917-0.98-2.687-1.32c-0.772-0.333-1.448-0.535-2.021-0.697c-1.154-0.312-1.951-0.367-2.639-0.344
			c-1.384,0.071-2.29,0.352-4.81-0.236c4.663-0.812-5.67-3.15-4.372-4.043c-11.19-3.917-23.009-5.745-35.032-7.051
			c0.204,0.378,3.593,1.182,1.452,1.285c-0.555-0.02-1.069-0.059-1.549-0.106c-0.481-0.028-0.926-0.072-1.336-0.127
			c-0.821-0.11-1.507-0.268-2.073-0.442c-1.133-0.35-1.788-0.772-2.077-1.037c-1.438-0.075-2.727-0.013-3.877,0.078
			c-1.151,0.086-2.164,0.202-3.055,0.337c-0.891,0.139-1.658,0.284-2.32,0.46c-0.662,0.194-1.219,0.393-1.686,0.585
			c2.47-0.315,2.692,0.104,2.233,0.749c-2.819,0.138-3.845-0.165-4.842-0.391c-0.497-0.108-0.986-0.188-1.684-0.159
			c-0.349,0.015-0.75,0.055-1.229,0.135c-0.479,0.102-1.035,0.243-1.695,0.437c-0.749-0.592,0.731-0.915,2.338-1.135
			c1.605-0.206,3.332-0.408,3.053-1.044c-1.266,0.009-2.413,0.057-3.477,0.136c-1.063,0.102-2.043,0.275-2.976,0.444
			c-1.865,0.368-3.551,0.747-5.338,1.291c-0.457-0.361,0.374-0.53,0.97-0.618c0.597-0.074,0.954-0.132-0.469-0.346
			c-1.922,0.401-3.942,0.823-5.981,1.249c-2.029,0.446-4.048,1.049-6.011,1.56c-1.969,0.489-3.832,1.153-5.571,1.698
			c-1.736,0.557-3.336,1.058-4.698,1.59l-1.803-0.63c-3.607,1.047-5.866,2.131-7.328,3.151c-2.053,0.243-0.657-0.529,1.147-1.291
			c-1.2,0.38-2.447,0.844-3.681,1.34c-1.225,0.521-2.417,1.129-3.551,1.689c-1.125,0.573-2.19,1.116-3.133,1.596
			c-0.923,0.521-1.727,0.968-2.362,1.285c0.148-0.784,2.532-1.301,3.11-2.066c-1.493,0.509-2.967,1.333-4.455,2.148
			c-0.734,0.425-1.474,0.853-2.207,1.276c-0.727,0.436-1.42,0.921-2.114,1.361c-1.382,0.896-2.714,1.728-3.971,2.375
			c-1.233,0.691-2.386,1.212-3.457,1.411c0.372-0.422,0.886-0.756,1.376-1.038c-8.142,4.537-14.415,9.779-22.001,16.326
			c-3.913,2.516-4.189,3.345-4.312,4.271c-0.131,0.923-0.165,1.91-3.433,4.971c-1.065-1.028-3.243,1.17-5.48,3.928
			c-1.066,1.426-2.146,2.987-3.138,4.348c-1.016,1.339-1.813,2.588-2.522,3.235l1.082-0.679c-1.854,4.162-6.233,8.436-8.601,10.628
			c-0.936,1.398-2.01,2.959-3.045,4.665c-1,1.729-2.025,3.565-3.008,5.422c-0.909,1.896-1.761,3.82-2.515,5.668
			c-0.731,1.858-1.258,3.693-1.683,5.331l-0.027-1.469c-0.38,1.348-0.84,2.514-1.255,3.627c-0.405,1.118-0.835,2.155-1.265,3.193
			c-0.42,1.042-0.878,2.071-1.237,3.206c-0.349,1.138-0.666,2.356-0.919,3.728c-0.164-0.21,0.149-2.293-0.735-0.323l-0.874,2.355
			c-0.267,0.794-0.505,1.598-0.755,2.398c-0.484,1.606-0.994,3.21-1.428,4.834c-0.783,3.271-1.606,6.543-2.107,9.881
			c-0.635,3.315-0.944,6.681-1.31,10.033c-0.148,1.68-0.206,3.367-0.306,5.049l-0.13,2.523l-0.011,2.526l0.014,5.046l0.253,5.033
			c0.053,1.677,0.232,3.347,0.4,5.016c0.184,1.666,0.283,3.338,0.532,4.994c0.842,6.643,2.15,13.184,3.653,19.645
			c1.581,6.147,3.458,12.44,5.984,18.651c2.544,6.193,5.465,12.41,9.018,18.383c3.548,5.969,7.542,11.788,12.016,17.286
			c4.514,5.464,9.453,10.629,14.746,15.396c10.647,9.462,22.745,17.254,35.377,22.716c12.598,5.558,25.674,8.741,37.99,10.026
			c0,0,1.58-0.575,3.831-1.538c1.126-0.496,2.411-1.025,3.761-1.743c1.349-0.712,2.75-1.499,4.099-2.329
			c2.7-1.602,5.192-3.667,6.771-5.461C161.193,286.246,161.883,284.551,161.117,283.276z"/>
		<path d="M286.483,124.995c-0.04-0.214-0.076-0.41-0.122-0.658C286.385,124.59,286.427,124.798,286.483,124.995z"/>
		<path d="M216.817,42.84c0.472,0.227,0.962,0.421,1.455,0.611C217.809,43.215,217.336,43.002,216.817,42.84z"/>
		<path d="M125.17,40.288l1.823-0.639C126.192,39.886,125.623,40.091,125.17,40.288z"/>
		<path d="M42.573,140.57c0.943-0.521,1.838,3.237,3.091,0.363c0.249-1.306,0.369-2.369,0.466-3.239
			c0.114-0.867,0.145-1.555,0.119-2.123c-0.051-1.137-0.321-1.798-0.585-2.473c-0.546-1.352-0.988-2.756,0.711-8.114
			c0,0-0.171,0.319-0.428,0.8c-0.233,0.49-0.544,1.144-0.854,1.796c-0.626,1.315-1.252,2.63-1.252,2.63
			c1.497,0.099,1.332,4.151,0.593,8.396l-1.31,1.1c-0.187-0.793-0.311-1.633-0.386-2.501
			C42.312,138.809,43.228,138.666,42.573,140.57z"/>
		<path d="M42.871,136.812c-0.041,0.075-0.094,0.171-0.135,0.247c0.007,0.042,0.003,0.096,0.003,0.146
			C42.782,137.074,42.812,136.961,42.871,136.812z"/>
	</g>
	<path fill="none" stroke="#000000" stroke-width="2" stroke-miterlimit="10" d="M91.671,145.761"/>
</g>
<g>
</g>
<g>
</g>
<g>
</g>
<g>
</g>
<g>
</g>
<g>
</g>
</svg>
