<?xml version="1.0" encoding="utf-8"?>
<!-- Generator: Adobe Illustrator 16.0.0, SVG Export Plug-In . SVG Version: 6.00 Build 0)  -->
<!DOCTYPE svg PUBLIC "-//W3C//DTD SVG 1.1//EN" "http://www.w3.org/Graphics/SVG/1.1/DTD/svg11.dtd">
<svg version="1.1" id="sui_x5F_logo01" xmlns="http://www.w3.org/2000/svg" xmlns:xlink="http://www.w3.org/1999/xlink" x="0px"
	 y="0px" width="278.262px" height="171.014px" viewBox="0 0 278.262 171.014" enable-background="new 0 0 278.262 171.014"
	 xml:space="preserve">
<rect x="137.453" y="128.208" fill="#FFFFFF" width="22.265" height="1"/>
<rect x="243.397" y="127.708" fill="#FFFFFF" width="22.265" height="1"/>
<g>
	<path fill="#FFFFFF" d="M185.778,112.952v4.452c-0.157,0.47-0.549,0.393-1.172-0.233c-1.875-1.875-3.047-2.967-3.517-3.281
		c-0.626-0.312-1.252-0.469-1.875-0.469c-1.095,0-1.875,0.233-2.344,0.703c-0.626,0.469-0.938,1.172-0.938,2.108
		c0,0.783,0.153,1.486,0.469,2.109c1.249,1.406,2.731,3.047,4.453,4.922c2.187,2.189,3.357,4.533,3.516,7.031
		c0,2.344-0.703,4.299-2.108,5.858c-1.563,1.406-3.361,2.109-5.392,2.109c-2.032,0-3.907-0.623-5.625-1.875
		c-1.875-1.406-3.516-3.358-4.922-5.859c0.313-1.092,0.623-1.172,0.938-0.233c2.498,1.875,5.155,2.893,7.969,3.047
		c1.406,0,2.421-0.077,3.047-0.234c0.469-0.312,0.856-0.546,1.172-0.702c0.623-0.78,0.938-1.483,0.938-2.109
		c0-0.78-0.703-2.188-2.109-4.219c-2.658-3.124-4.219-5.156-4.688-6.095c-0.469-0.938-0.702-2.108-0.702-3.516
		c0-2.029,0.623-3.593,1.875-4.688c1.092-1.405,2.813-2.108,5.155-2.108C183.512,110.139,185.464,111.234,185.778,112.952z"/>
	<path fill="#FFFFFF" d="M213.088,113.186c-0.469,1.406-0.938,3.127-1.405,5.156c-0.783,4.688-1.252,8.049-1.406,10.078
		c0,1.875,0.233,3.204,0.703,3.983c0.312,0.783,0.938,1.019,1.875,0.703c0.938-0.312,1.875-1.325,2.813-3.047
		c0.154,0.469,0.154,1.252,0,2.344c-1.405,3.75-2.893,5.625-4.453,5.625c-0.938,0-1.721-0.312-2.344-0.938
		c-1.563-1.406-2.267-3.984-2.108-7.734c-1.563,3.438-3.128,5.859-4.688,7.267c-1.252,1.095-2.501,1.641-3.75,1.641
		c-1.721,0-2.97-0.546-3.75-1.641c-0.938-1.249-1.406-3.047-1.406-5.392c0-1.405,0.78-7.03,2.345-16.875
		c-0.157-0.623-0.55-0.623-1.173,0c-0.782,0.314-1.095,0.157-0.938-0.469c0.312-0.938,1.015-2.029,2.108-3.281
		c0.938-0.779,1.796-0.779,2.578,0c0.938,1.096,1.406,2.109,1.406,3.047c0,1.406-0.234,3.128-0.703,5.156
		c-1.406,6.408-2.108,10.158-2.108,11.25c0,1.563,0.153,2.501,0.469,2.813c0.469,0.469,0.938,0.703,1.406,0.703
		c1.405,0,2.813-0.78,4.219-2.345c2.655-2.967,4.53-7.733,5.625-14.297c0.154-1.406,0.312-2.654,0.469-3.75
		c0.154-2.187,0.623-3.516,1.406-3.983c0.78-0.154,1.406,0,1.875,0.469C213.242,110.454,213.557,111.625,213.088,113.186z"/>
	<path fill="#FFFFFF" d="M230.347,114.358c0.153,0.626,0.233,1.799,0.233,3.517l-0.469,3.75c-0.314,3.127-0.703,6.174-1.172,9.141
		c-0.314,1.252,0,1.875,0.938,1.875c0.938,0,1.952-0.233,3.047-0.703c0.938-0.623,1.875-1.405,2.813-2.344
		c0.623-0.469,0.857-0.234,0.703,0.703c-0.783,2.344-1.955,4.299-3.517,5.858c-1.405,1.406-2.893,2.109-4.452,2.109
		c-0.783,0-1.486-0.312-2.109-0.938c-1.095-1.093-1.641-2.968-1.641-5.625c0-1.249,0.312-4.063,0.938-8.438
		c0.469-4.688,0.938-8.515,1.406-11.484c0.78-2.187,1.561-2.421,2.344-0.702C229.878,112.483,230.189,113.578,230.347,114.358z
		 M231.753,98.889c0.313,0.626,0.47,1.172,0.47,1.641c0,1.722-0.55,3.281-1.642,4.688c-0.313,0.157-0.783,0.157-1.406,0
		c-1.405-1.249-2.031-2.187-1.875-2.813c0.78-2.187,1.483-4.219,2.109-6.094c0-0.623,0.234-0.703,0.703-0.233
		C230.893,97.171,231.438,98.109,231.753,98.889z"/>
</g>
<g>
	<path fill="#FFFFFF" d="M95.992,48.315c5-1.071,7.184-2.607,12.543-2.607c5,1.071,10.857,3.863,11.576,6.359
		c-0.719,1.433-3.576,2.328-8.576,2.681c-5.359,0-10.367,0.359-15.006,1.071c-0.361,2.505-0.537,4.824-0.537,6.969
		c1.424,0,3.217-0.177,5.359-0.536c3.928-2.145,7.504-2.32,10.721-0.536c3.215,1.072,5.176,2.328,5.896,3.752
		c-0.36,2.504-3.217,3.936-8.575,4.288c-4.289,0.72-8.937,1.968-13.937,3.752c-0.36,1.792-0.537,3.752-0.537,5.896h7.504
		c3.929,0,3.97-1.352,6.111-2.071l1.93-2.216c2.494,0.72,5.535,2.327,9.111,4.823c2.855,1.433,4.639,3.04,5.359,4.824
		c-1.433,0.72-4.648,1.072-9.648,1.072c-5.719,0.359-12.688,0.72-20.902,1.072c0,2.144-0.184,4.473-0.536,6.968v6.432
		c0,1.792-0.896,2.681-2.681,2.681c-3.576,0-6.256-2.495-8.039-7.504c-0.358-2.855-0.184-5.712,0.535-8.575
		c-3.576,0.72-6.791,0.535-9.646-0.536c-2.504-0.712-6.185-2.496-9.041-5.36c-3.937,5.008-7.761,9.472-13.472,13.4
		c0.353,3.575,0.712,6.432,1.072,8.575c-1.072,1.791-2.328,3.039-3.752,3.753c-4.648,0-7.152-2.682-7.504-8.041
		c-7.504,4.288-12.512,6.256-15.008,5.896c-2.864-0.352-5.544-2.854-8.04-7.504c-0.72-1.424-1.36-2.855,0.072-4.288
		c0.352-1.423,2.424-2.319,4.216-2.68c0,1.433,0.712,2.863,2.145,4.288c5.359-2.146,10.535-4.465,15.543-6.969
		c-0.358-2.854-0.536-6.07-0.536-9.646c-1.433,0.72-2.398,0.432-4.896,1.144c2.144-1.424,2.928-2.031,4.358-3.823
		c-1.792,0-3.752,0-5.896,0c-3.938-0.353-6.792-2.145-8.575-5.36c1.424-1.072,3.566-1.608,6.433-1.608
		c3.215-0.712,5.711-1.423,7.504-2.144l-0.537-5.968c-3.215,0.359-6.08,3.185-8.575,2.464c-5.009-0.712-10.224-5.856-11.647-9.433
		c5,0,10.576-1,12.72-1c3.567,0,6.248-0.352,8.041-1.071c-0.361-4.288-0.537-8.04-0.537-11.256c0-1.424-0.359-3.032-1.071-4.824
		c3.928,1.792,7.145,0.936,9.647,3.432c1.424,2.145,2.319,7.824,2.68,11.04c2.496,0,5.536-0.712,9.112-2.144
		c5.712,1.071,8.392,3.575,8.04,7.504c-0.722,1.071-2.505,1.792-5.36,2.144c-3.216,0.36-7.327,0.896-12.327,1.608v5.896
		c1.783-0.711,3.928-1.248,6.432-1.607c4.641-0.353,7.855,1.071,9.648,4.288c-0.361,2.504-3.217,4.472-8.576,5.896l-6.969,2.68
		c-0.359,2.864-0.185,5.36,0.537,7.504c3.215-1.783,6.069-3.216,8.575-4.287c2.144-1.425,4.104-2.496,5.896-3.217
		c1.424-1.424,3.217-2.496,5.359-3.216c-1.07,3.576-3.144,6.256-4.215,8.04c2.145,0.72,5.639,1.072,8.504,1.072
		c3.928-0.353,7.504-0.888,10.719-1.608l0.537-4.288c-0.717,0.358,1.158-1.464-4.576-0.319c3.215-1.784,2.072-0.568,4.576-2.36
		c-2.865,0-5.545,0-8.041,0c-3.215-0.712-5.719-2.496-7.504-5.36c2.856-0.352,5.713-1.888,8.576-2.607
		c2.495-0.353,5-0.888,7.504-1.608v-6.503l-6.433,0.536c-4.287-0.352-7.328-2.496-9.11-6.432c5.711-0.353,11.069-0.889,16.08-1.608
		V45.1c0-1.784-0.361-3.752-1.072-5.896c-1.435-1.425-2.4-8.96-4.896-8.608c2.146-2.144,7-2.855,10.576-2.144
		C94.086,28.695,94.113,26.884,95.992,48.315z M94.385,103.667c5,1.072,8.215,1.039,9.647,3.896c0,2.504-0.896,9.186-2.682,12.04
		l9.647-0.536c3.217,0.36,5.896,0.896,8.039,1.608c2.496,0.72,4.289,2.143,5.361,4.287c1.072,1.793,0.887,3.576-0.537,5.358
		c-1.432,0.722-3.752,2.537-6.967,1.466c-4.289-0.353-35.111,2-40.474,3.071c2.146-0.713,29.568-5.782,30.289-7.217
		c-2.864,0-5.721,0.187-8.575,0.537c-1.433,3.215-0.681,6.432-1.753,9.646c3.216,0.36,2.824,2.327,2.824,5.896
		c-1.434,0.713-5.184,2.072-11.256,2.072c-8.394,0.375-23.338,2.268-41.663,3.68c-5.009,0-7.504-3.793-7.504-7.359
		c6.432-1.424,15.216-2.495,22.367-3.217c4.288-0.711,8.751-1.248,13.398-1.606c1.785,0,5.753-0.177,7.896-0.535
		c1.072-3.217,0.32-5.896,1.752-8.041c-3.576,0-7.688-0.639-12.328,0.072c-12.323,1.761-20.34,2.646-30.087,2.823
		c-7.894,0.144-14.976,1.48-17.079-3.432c4.999-0.713,10.359-1.609,16.079-2.68c6.783-1.785,15.183-3.218,25.19-4.289
		c10.721-1.424,17.688-2.145,20.903-2.145c1.072-2.496,1.959-4.64,2.681-6.433l-9.111-0.535c-7.863,0.359-16.615,1.607-26.264,3.752
		c-3.576,0.72-7.504,0.535-11.791-0.536c-2.504-1.071-6.648-2.495-8.434-4.288c8.216-1.424,19.151-3.03,28.8-4.823
		c7.855-1.425,14.822-2.145,20.902-2.145C87.232,104.058,90.809,102.594,94.385,103.667z"/>
</g>
</svg>
